<svg xmlns="http://www.w3.org/2000/svg" viewBox="0 0 1020 240"><defs><style>.cls-1{fill:#50b948;}.cls-2{opacity:0.25;}.cls-3{fill:#fff;}.cls-4{fill:#f2f2f2;}</style></defs><g id="System_Configurator" data-name="System Configurator"><rect class="cls-1" x="-9" y="-45" width="1038" height="306"/><g class="cls-2"><path class="cls-3" d="M1039.82-45H938.41A36.28,36.28,0,0,0,902.13-8.72V248.72A36.28,36.28,0,0,0,938.41,285h101.41a36.28,36.28,0,0,0,36.28-36.28V-8.72A36.28,36.28,0,0,0,1039.82-45Zm0,315.49H938.41a21.8,21.8,0,0,1-21.77-21.77h144.95A21.79,21.79,0,0,1,1039.82,270.49Zm8.47-199.56V89.67H930V70.93ZM930,44.05V25.31h118.34V44.05Zm7,139.37a7.83,7.83,0,1,1-7.82,7.83A7.82,7.82,0,0,1,936.93,183.42Zm0,28.89a7.83,7.83,0,1,1-7.82,7.82A7.82,7.82,0,0,1,936.93,212.31Zm-20.29-221a21.79,21.79,0,0,1,21.77-21.77h101.41a21.79,21.79,0,0,1,21.77,21.77Z"/><path class="cls-3" d="M875.44,21.33H598.7A13.67,13.67,0,0,0,585,35V217.28a13.67,13.67,0,0,0,13.66,13.66H875.44a13.66,13.66,0,0,0,13.66-13.66V35A13.66,13.66,0,0,0,875.44,21.33ZM865.21,196H608.93V49.61H865.21Z"/><path class="cls-3" d="M726.91,144.21a13.51,13.51,0,0,1-1.18-17.81l-4.58-4.58L689.48,153.5a14.87,14.87,0,0,0,21,21l23.36-23.36Z"/><path class="cls-3" d="M783.08,70.56l-3,15.93a10.12,10.12,0,0,1-19.89-3.8l3.05-15.94a25.52,25.52,0,0,0-19,32l-9.63,9.63,4.57,4.57A13.49,13.49,0,0,1,757,114.16l7,7,3.91-3.91a25.53,25.53,0,0,0,15.25-46.65Z"/><path class="cls-3" d="M788.68,152.42l-34.86-34.86a9.17,9.17,0,0,0-13,0L739,119.4l-28-28-6.25-14.9L687,67.36l-7.12,7.13L689,92.28l14.9,6.25,28,28-1.84,1.83a9.17,9.17,0,0,0,0,13l34.86,34.86a9.16,9.16,0,0,0,13,0l10.8-10.79A9.17,9.17,0,0,0,788.68,152.42Zm-11.58,12.2a3.31,3.31,0,0,1-4.66,0l-30.81-30.81a3.3,3.3,0,0,1,4.66-4.67L777.1,160A3.29,3.29,0,0,1,777.1,164.62Z"/></g><path class="cls-3" d="M198.39,59.85c10.27,0,15.55,6.15,15.55,16.9v2.11H204V76.07c0-4.8-1.92-6.62-5.28-6.62s-5.28,1.82-5.28,6.62C193.4,89.9,214,92.49,214,111.69c0,10.75-5.37,16.89-15.74,16.89s-15.74-6.14-15.74-16.89v-4.13h10v4.8c0,4.8,2.11,6.53,5.47,6.53s5.48-1.73,5.48-6.53c0-13.82-20.64-16.42-20.64-35.61C182.84,66,188.12,59.85,198.39,59.85Z"/><path class="cls-3" d="M229.3,105.54,216,60.62h11l8.06,30.62,8.06-30.62H253.2l-13.34,44.92v22.27H229.3Z"/><path class="cls-3" d="M271,59.85c10.28,0,15.56,6.15,15.56,16.9v2.11h-10V76.07c0-4.8-1.92-6.62-5.28-6.62S266,71.27,266,76.07c0,13.83,20.64,16.42,20.64,35.62,0,10.75-5.37,16.89-15.74,16.89s-15.74-6.14-15.74-16.89v-4.13h10v4.8c0,4.8,2.11,6.53,5.47,6.53s5.47-1.73,5.47-6.53c0-13.82-20.64-16.42-20.64-35.61C255.41,66,260.69,59.85,271,59.85Z"/><path class="cls-3" d="M289.59,60.62h32.64v9.6h-11v57.59H300.63V70.22h-11Z"/><path class="cls-3" d="M337.4,88.94h14.49v9.6H337.4v19.67h18.23v9.6H326.84V60.62h28.79v9.6H337.4Z"/><path class="cls-3" d="M384.53,108.33l7.2-47.71h14.69v67.19h-10V79.63l-7.29,48.18h-10L371.28,80.3v47.51h-9.21V60.62h14.68Z"/><path class="cls-3" d="M457.68,77V82.6h-4.22V76.75c0-7.2-2.79-12.67-10.18-12.67s-10.17,5.47-10.17,12.67v34.94c0,7.2,2.78,12.57,10.17,12.57s10.18-5.37,10.18-12.57v-8h4.22v7.68c0,9.69-4.22,17-14.49,17s-14.5-7.3-14.5-17V77c0-9.69,4.22-17,14.5-17S457.68,67.34,457.68,77Z"/><path class="cls-3" d="M464.59,77c0-9.79,4.52-17,14.69-17,10.37,0,14.88,7.2,14.88,17V111.4c0,9.79-4.51,17-14.88,17-10.17,0-14.69-7.2-14.69-17ZM469,111.69c0,7.29,2.88,12.67,10.27,12.67s10.46-5.38,10.46-12.67V76.75c0-7.3-3-12.67-10.46-12.67S469,69.45,469,76.75Z"/><path class="cls-3" d="M505.49,127.81h-4V60.62h5.76l20.16,56.73V60.62h4v67.19h-4.9l-21-59.89Z"/><path class="cls-3" d="M560.78,93.35v4H543.41v30.43H539V60.62h25.54v4H543.41v28.7Z"/><path class="cls-3" d="M575.66,60.62v67.19h-4.41V60.62Z"/><path class="cls-3" d="M612,77v5h-4.22V76.75c0-7.2-2.78-12.67-10.17-12.67s-10.18,5.47-10.18,12.67v34.94c0,7.2,2.78,12.57,10.18,12.57s10.17-5.37,10.17-12.57V97.19h-8.93v-4H612V111.4c0,9.69-4.22,17-14.49,17s-14.5-7.3-14.5-17V77c0-9.69,4.23-17,14.5-17S612,67.34,612,77Z"/><path class="cls-3" d="M623.66,111.59c0,7.2,2.69,12.77,10.08,12.77s10.08-5.57,10.08-12.77v-51H648V111.4c0,9.6-4,17-14.3,17s-14.4-7.39-14.4-17V60.62h4.41Z"/><path class="cls-3" d="M669.55,60.62c10.27,0,14.4,5.66,14.4,15.17v5.85c0,7.87-3.07,12.39-9.7,13.92,6.91,1.54,9.7,6.43,9.7,13.73v10.46c0,2.79.19,5.86,1.63,8.06H681c-1.15-2-1.44-4.41-1.44-8.06V109.19c0-8.93-4.89-11.42-12.57-11.42h-7v30h-4.42V60.62Zm-2.5,33.12c7.87,0,12.48-2.21,12.48-11.23V76.17c0-7.2-2.78-11.52-10.08-11.52H660V93.74Z"/><path class="cls-3" d="M699,112.94l-3.36,14.87h-4l14.69-67.29h6.43l15,67.29h-4.41L720,112.94Zm.67-3.84h19.58l-9.88-43.49Z"/><path class="cls-3" d="M746.06,127.81V64.65H732.33v-4h31.78v4H750.47v63.16Z"/><path class="cls-3" d="M769.58,77c0-9.79,4.51-17,14.68-17,10.37,0,14.88,7.2,14.88,17V111.4c0,9.79-4.51,17-14.88,17-10.17,0-14.68-7.2-14.68-17ZM774,111.69c0,7.29,2.88,12.67,10.27,12.67s10.47-5.38,10.47-12.67V76.75c0-7.3-3-12.67-10.47-12.67S774,69.45,774,76.75Z"/><path class="cls-3" d="M820.46,60.62c10.27,0,14.4,5.66,14.4,15.17v5.85c0,7.87-3.08,12.39-9.7,13.92,6.91,1.54,9.7,6.43,9.7,13.73v10.46c0,2.79.19,5.86,1.63,8.06h-4.61c-1.15-2-1.44-4.41-1.44-8.06V109.19c0-8.93-4.9-11.42-12.57-11.42h-7v30h-4.42V60.62ZM818,93.74c7.87,0,12.48-2.21,12.48-11.23V76.17c0-7.2-2.78-11.52-10.08-11.52h-9.5V93.74Z"/><path class="cls-4" d="M145,159.88a10.19,10.19,0,0,0-5.76-1.48c-5.58,0-9.5,4.21-9.5,10.12,0,4.21,2.73,7.95,7.16,7.95a10,10,0,0,0,5.29-1.55l-.79,4.83a21.78,21.78,0,0,1-5.69.68c-7.59,0-11.23-5.11-11.23-11.91,0-8.1,5.51-14.08,14.4-14.08a20,20,0,0,1,7.38,1.23Z"/><path class="cls-4" d="M155.29,154.88l-2.55,11.91c-.83,3.53-2.16,9.68,3.42,9.68,5.18,0,6.15-4.71,7.05-8.85L166,154.88h5l-3.35,15.19c-1.44,6.44-4.47,10.36-11.45,10.36-8.21,0-10.22-4.75-8.75-11.91l2.88-13.64Z"/><path class="cls-4" d="M188.66,159.7a11.81,11.81,0,0,0-5.22-1.3c-1.8,0-4.21.72-4.21,2.88,0,4,8.57,3.78,8.57,10.76,0,6.16-4.82,8.39-10.33,8.39a21.2,21.2,0,0,1-7.16-1.4l1.29-4.28a15.09,15.09,0,0,0,6.16,1.72c2.41,0,4.78-1.22,4.78-3.92,0-4.54-8.56-3.82-8.56-10.51,0-5.29,4.53-7.6,9.36-7.6a17.44,17.44,0,0,1,6.51,1.12Z"/><path class="cls-4" d="M193.85,154.88h19.4l-.83,4h-7.09L200.76,180h-5.25l4.57-21.17H193Z"/><path class="cls-4" d="M237.23,165.1A16.76,16.76,0,0,1,233,176.22c-2.62,2.92-6.44,4.21-10.65,4.21-6.19,0-9.9-4.46-9.9-10.44a16.81,16.81,0,0,1,4-10.87,13.2,13.2,0,0,1,10.33-4.68C233.55,154.44,237.23,158.4,237.23,165.1Zm-19.51,5.18c0,3.28,1.65,6.19,5.29,6.19,5.76,0,9-6.91,9-11.91,0-3.35-1.73-6.16-5.36-6.16C220.74,158.4,217.72,165.21,217.72,170.28Z"/><path class="cls-4" d="M244.43,154.88h8.31l1.7,18.1h.07l9.9-18.1h8.38L267.43,180H262.1l4.75-20.81h-.07L255.41,180h-4.83l-2-20.81h-.07L243.89,180H239.1Z"/><path class="cls-4" d="M305,159.88a10.19,10.19,0,0,0-5.76-1.48c-5.58,0-9.5,4.21-9.5,10.12,0,4.21,2.73,7.95,7.16,7.95a10,10,0,0,0,5.29-1.55l-.79,4.83a21.78,21.78,0,0,1-5.69.68c-7.59,0-11.23-5.11-11.23-11.91,0-8.1,5.51-14.08,14.4-14.08a20,20,0,0,1,7.38,1.23Z"/><path class="cls-4" d="M331.22,165.1A16.75,16.75,0,0,1,327,176.22c-2.63,2.92-6.44,4.21-10.65,4.21-6.2,0-9.9-4.46-9.9-10.44a16.75,16.75,0,0,1,4-10.87,13.17,13.17,0,0,1,10.33-4.68C327.55,154.44,331.22,158.4,331.22,165.1Zm-19.51,5.18c0,3.28,1.66,6.19,5.29,6.19,5.76,0,9-6.91,9-11.91,0-3.35-1.73-6.16-5.37-6.16C314.74,158.4,311.71,165.21,311.71,170.28Z"/><path class="cls-4" d="M338.28,154.88h6.37L350,174h.08l4.1-19.07h4.75L353.51,180H347l-5.26-19.26h-.07l-4,19.26h-4.82Z"/><path class="cls-4" d="M364.38,154.88h13.86l-.87,4h-8.78l-1.33,6.2h8.39l-.8,4h-8.42l-2.3,11h-5Z"/><path class="cls-4" d="M381.88,154.88h5.25L381.84,180h-5.26Z"/><path class="cls-4" d="M410.85,160.2a12.68,12.68,0,0,0-7-1.8c-6.12,0-10,4.79-10,10.73a7,7,0,0,0,7.09,7.34,6.62,6.62,0,0,0,2.48-.25l1.41-6.66h-5.33l.83-4h10.19l-2.88,13.72a20.42,20.42,0,0,1-6.73,1.11c-7.38,0-12.32-3.38-12.32-11.16,0-9.18,6-14.83,15.09-14.83a23.66,23.66,0,0,1,8.38,1.41Z"/><path class="cls-4" d="M423.31,154.88l-2.56,11.91c-.82,3.53-2.16,9.68,3.42,9.68,5.19,0,6.16-4.71,7.06-8.85L434,154.88h5l-3.35,15.19c-1.43,6.44-4.46,10.36-11.44,10.36-8.21,0-10.22-4.75-8.75-11.91l2.88-13.64Z"/><path class="cls-4" d="M444,154.88h5.94c4.65,0,10-.08,10,5.93,0,4.32-3.24,6.63-7.34,6.7v.07a2.68,2.68,0,0,1,2.55,2.31L457.54,180h-5.29L451,174.1c-.58-2.67-.43-4.54-3.17-4.54H446L443.76,180h-5Zm2.88,10.72h1.84c2.7,0,6-.83,6-4.14,0-2.63-2.27-2.63-4.32-2.63h-2.09Z"/><path class="cls-4" d="M466.37,154.88h14.79l-.76,4h-9.82l-1.3,6.2h8.79l-.8,4h-8.82L467,176h9.93l-.86,4h-15Z"/><path class="cls-4" d="M499.74,169.6l-5.91-14.72h5.33l3.75,10.54,8.17-10.54h5.86L504.78,169.6l-2.2,10.4h-5Z"/><path class="cls-4" d="M541.24,165.1A16.75,16.75,0,0,1,537,176.22c-2.63,2.92-6.44,4.21-10.65,4.21-6.19,0-9.9-4.46-9.9-10.44a16.75,16.75,0,0,1,4-10.87,13.19,13.19,0,0,1,10.33-4.68C537.57,154.44,541.24,158.4,541.24,165.1Zm-19.51,5.18c0,3.28,1.66,6.19,5.3,6.19,5.75,0,9-6.91,9-11.91,0-3.35-1.73-6.16-5.37-6.16C524.76,158.4,521.73,165.21,521.73,170.28Z"/><path class="cls-4" d="M553.34,154.88l-2.55,11.91c-.83,3.53-2.16,9.68,3.42,9.68,5.18,0,6.15-4.71,7-8.85L564,154.88h5l-3.34,15.19c-1.44,6.44-4.47,10.36-11.45,10.36-8.21,0-10.22-4.75-8.75-11.91l2.88-13.64Z"/><path class="cls-4" d="M574,154.88h5.93c4.65,0,10-.08,10,5.93,0,4.32-3.24,6.63-7.34,6.7v.07a2.68,2.68,0,0,1,2.55,2.31L587.58,180h-5.3l-1.22-5.9c-.58-2.67-.43-4.54-3.17-4.54H576L573.79,180h-5Zm2.87,10.72h1.84c2.7,0,6-.83,6-4.14,0-2.63-2.27-2.63-4.32-2.63h-2.09Z"/><path class="cls-4" d="M606.3,154.88h6.37L618,174h.07l4.11-19.07H627L621.52,180H615l-5.25-19.26h-.07l-4,19.26H600.9Z"/><path class="cls-4" d="M632.4,154.88h14.79l-.76,4h-9.82l-1.3,6.2h8.78l-.79,4h-8.82L633,176h9.93l-.86,4h-15Z"/><path class="cls-4" d="M649.86,154.88h5l.75,19.25h.07l8.35-19.25h6.77l.11,19.25H671l8.89-19.25h5.22l-12,25.12h-6.3l-.26-20.09h-.07L657.67,180h-6.23Z"/><path class="cls-4" d="M715,159.88a10.16,10.16,0,0,0-5.75-1.48c-5.58,0-9.51,4.21-9.51,10.12,0,4.21,2.74,7.95,7.17,7.95a10,10,0,0,0,5.29-1.55l-.79,4.83a21.78,21.78,0,0,1-5.69.68c-7.6,0-11.23-5.11-11.23-11.91,0-8.1,5.5-14.08,14.4-14.08a19.93,19.93,0,0,1,7.37,1.23Z"/><path class="cls-4" d="M741.26,165.1a16.75,16.75,0,0,1-4.21,11.12c-2.63,2.92-6.45,4.21-10.66,4.21-6.19,0-9.9-4.46-9.9-10.44a16.81,16.81,0,0,1,4-10.87,13.2,13.2,0,0,1,10.33-4.68C737.59,154.44,741.26,158.4,741.26,165.1Zm-19.51,5.18c0,3.28,1.65,6.19,5.29,6.19,5.76,0,9-6.91,9-11.91,0-3.35-1.73-6.16-5.36-6.16C724.77,158.4,721.75,165.21,721.75,170.28Z"/><path class="cls-4" d="M748.46,154.88h8.31l1.7,18.1h.07l9.9-18.1h8.38L771.46,180h-5.33l4.75-20.81h-.07L759.44,180h-4.82l-2-20.81h-.07L747.92,180h-4.79Z"/><path class="cls-4" d="M781.79,180h-5l5.32-25.12h4.25c4.64,0,11,.25,11,6.51,0,6.08-5,9.07-10.62,9.07h-2.92Zm2.88-13.5h1.8c2.78,0,5.62-1.44,5.62-4.57,0-2.55-2.05-3.1-4.21-3.1h-1.59Z"/><path class="cls-4" d="M807.36,154.88l-2.56,11.91c-.83,3.53-2.16,9.68,3.42,9.68,5.18,0,6.15-4.71,7-8.85L818,154.88h5l-3.35,15.19c-1.44,6.44-4.46,10.36-11.45,10.36-8.2,0-10.22-4.75-8.74-11.91l2.88-13.64Z"/><path class="cls-4" d="M825.9,154.88h19.4l-.83,4h-7.09L832.81,180h-5.26l4.57-21.17H825Z"/><path class="cls-4" d="M848.43,154.88h14.79l-.75,4h-9.83l-1.29,6.2h8.78l-.79,4h-8.82L849,176H859l-.87,4h-15Z"/><path class="cls-4" d="M868.05,154.88H874c4.64,0,10-.08,10,5.93,0,4.32-3.24,6.63-7.35,6.7v.07a2.69,2.69,0,0,1,2.56,2.31L881.62,180h-5.29l-1.22-5.9c-.58-2.67-.44-4.54-3.17-4.54H870L867.83,180h-5Zm2.88,10.72h1.84c2.7,0,6-.83,6-4.14,0-2.63-2.27-2.63-4.32-2.63h-2.09Z"/><path class="cls-4" d="M892.89,175l-1,5h-5l1-5Zm-1.19-20.08h5.65l-4.53,17.74h-4Z"/><path class="cls-4" d="M237.43,203.85a9.56,9.56,0,0,1-2.81.41c-4.09,0-7.22-2.15-7.22-7a8.76,8.76,0,0,1,9.22-8.87,9.91,9.91,0,0,1,3.65.7l-.64,1.89a7.65,7.65,0,0,0-3-.66c-4.67,0-6.94,3.44-6.94,7.05,0,3.36,2.25,5,5.24,5a7.43,7.43,0,0,0,2.75-.53Z"/><path class="cls-4" d="M243.44,187.5h2.07l-1.39,6.69h0a4.19,4.19,0,0,1,3.54-1.68c2.18,0,3.74,1.15,3.74,3.53a10,10,0,0,1-.27,2L250,204h-2.07l1.39-6.71a6.68,6.68,0,0,0,.11-1.06,1.94,1.94,0,0,0-2-2c-2.55,0-3.8,2.77-4.09,4.15L242.05,204H240Z"/><path class="cls-4" d="M260.09,192.51c3,0,5,1.83,5,4.91,0,3.81-2.25,6.84-6.27,6.84-3.08,0-5.11-1.67-5.11-5C253.69,195.53,256,192.51,260.09,192.51Zm-1.32,10.08c2.34,0,4.1-2.64,4.1-5.17a2.94,2.94,0,0,0-2.86-3.23c-2.75,0-4.12,2.9-4.12,5.23C255.89,201.21,256.82,202.59,258.77,202.59Z"/><path class="cls-4" d="M273.54,192.51a4.59,4.59,0,0,1,5,4.91c0,3.81-2.25,6.84-6.27,6.84-3.08,0-5.11-1.67-5.11-5C267.13,195.53,269.42,192.51,273.54,192.51Zm-1.32,10.08c2.33,0,4.09-2.64,4.09-5.17a2.94,2.94,0,0,0-2.86-3.23c-2.75,0-4.12,2.9-4.12,5.23C269.33,201.21,270.26,202.59,272.22,202.59Z"/><path class="cls-4" d="M287.48,194.76a5.44,5.44,0,0,0-2.24-.57c-.9,0-2.09.24-2.09,1.36,0,1.91,3.83,2,3.83,5.13,0,2.7-2.49,3.58-4.25,3.58a8.42,8.42,0,0,1-3.28-.52l.4-1.79a6.9,6.9,0,0,0,2.57.64c1.12,0,2.36-.46,2.36-1.74,0-1.91-3.83-2.2-3.83-5,0-2.37,2.38-3.3,4.22-3.3a8,8,0,0,1,2.93.62Z"/><path class="cls-4" d="M297.63,203.8a13.78,13.78,0,0,1-3.33.46c-2.72,0-5.17-1.1-5.17-5.06,0-3.1,2.18-6.69,6.14-6.69,2.71,0,4.23,1.63,4.23,4.29a12,12,0,0,1-.2,2h-7.9a3.35,3.35,0,0,0-.07.71c0,2.35,1.46,3,3.46,3a8.56,8.56,0,0,0,3.17-.68Zm-.27-6.49a5.51,5.51,0,0,0,.07-.86,2.15,2.15,0,0,0-2.38-2.26,3.86,3.86,0,0,0-3.43,3.12Z"/><path class="cls-4" d="M308.08,192.78h2.5l.55-2.6,2.23-.77-.71,3.37h3.08l-.33,1.67h-3.1l-1,4.82a16.85,16.85,0,0,0-.33,2.11c0,.79.44,1.21,1.49,1.21a4.15,4.15,0,0,0,1.45-.28l-.3,1.71a7.2,7.2,0,0,1-2,.24,2.41,2.41,0,0,1-2.68-2.48,16.26,16.26,0,0,1,.39-2.64l1-4.69h-2.46Z"/><path class="cls-4" d="M319.23,187.5h2.07l-1.39,6.69h0a4.18,4.18,0,0,1,3.54-1.68c2.18,0,3.74,1.15,3.74,3.53a10,10,0,0,1-.27,2L325.74,204h-2.07l1.39-6.71a6.68,6.68,0,0,0,.11-1.06,1.94,1.94,0,0,0-2.05-2c-2.55,0-3.8,2.77-4.09,4.15L317.84,204h-2.07Z"/><path class="cls-4" d="M338,203.8a13.7,13.7,0,0,1-3.32.46c-2.73,0-5.17-1.1-5.17-5.06,0-3.1,2.18-6.69,6.14-6.69,2.71,0,4.22,1.63,4.22,4.29a12,12,0,0,1-.19,2h-7.9a3.35,3.35,0,0,0-.07.71c0,2.35,1.45,3,3.45,3a8.48,8.48,0,0,0,3.17-.68Zm-.26-6.49a7.08,7.08,0,0,0,.07-.86,2.15,2.15,0,0,0-2.38-2.26,3.86,3.86,0,0,0-3.43,3.12Z"/><path class="cls-4" d="M349,196.5c.22-1.26.44-2.49.59-3.72h1.94l-.38,1.71h.05a4.45,4.45,0,0,1,4-2c2.53,0,4,1.85,4,4.27,0,4.12-1.91,7.48-5.65,7.48-2,0-3.13-.66-3.65-1.93h0l-1.34,6.29h-2.07Zm4.24,6.09c2.36,0,3.74-2.84,3.74-5.63,0-1.89-1.07-2.77-2.5-2.77-2.42,0-4,2.68-4,5.45A2.72,2.72,0,0,0,353.26,202.59Z"/><path class="cls-4" d="M363.43,193.09a11.53,11.53,0,0,1,3.12-.58c2.27,0,4.45.88,4.45,3.57a9.89,9.89,0,0,1-.2,1.76c-.42,2.09-.88,4.18-1.17,6.16h-1.91l.37-1.87h0a4.13,4.13,0,0,1-3.66,2.13c-1.89,0-3.58-1-3.58-3.1,0-3.19,2.88-4.09,6.64-4.09.44,0,1,0,1.5.06a3.76,3.76,0,0,0,.11-.72c0-1.61-1.06-2.22-2.58-2.22a7.08,7.08,0,0,0-3.43.94Zm3.49,5.52c-1.56,0-3.91.42-3.91,2.46,0,1,.86,1.52,1.85,1.52,2.09,0,3.41-2.09,3.65-4Z"/><path class="cls-4" d="M375.2,194.49c.08-.46.22-1.05.3-1.71h1.94l-.35,1.78h0a4.31,4.31,0,0,1,3.83-2.05,2.91,2.91,0,0,1,1,.2l-.46,1.83a2.76,2.76,0,0,0-.88-.22c-2.56,0-3.81,2.77-4.1,4.16L375.31,204h-2.07Z"/><path class="cls-4" d="M382.65,192.78h2.51l.55-2.6,2.22-.77-.7,3.37h3.08l-.33,1.67h-3.1l-1,4.82a16.85,16.85,0,0,0-.33,2.11c0,.79.44,1.21,1.5,1.21a4.15,4.15,0,0,0,1.45-.28l-.31,1.71a7.13,7.13,0,0,1-2,.24,2.41,2.41,0,0,1-2.68-2.48,16.26,16.26,0,0,1,.39-2.64l1-4.69h-2.46Z"/><path class="cls-4" d="M397.53,194.76a5.53,5.53,0,0,0-2.25-.57c-.9,0-2.09.24-2.09,1.36,0,1.91,3.83,2,3.83,5.13,0,2.7-2.49,3.58-4.25,3.58a8.32,8.32,0,0,1-3.27-.52l.39-1.79a7,7,0,0,0,2.58.64c1.12,0,2.35-.46,2.35-1.74,0-1.91-3.83-2.2-3.83-5,0-2.37,2.38-3.3,4.23-3.3a8,8,0,0,1,2.92.62Z"/><path class="cls-4" d="M408.53,187.5h2.06L409.21,194h0a4.33,4.33,0,0,1,3.57-1.48c2.53,0,4,1.85,4,4.27,0,4.12-1.91,7.48-5.65,7.48-2.4,0-3.19-.92-3.79-2.13h0L407,204H405Zm2.35,15.09c2.35,0,3.74-2.84,3.74-5.63,0-1.89-1.08-2.77-2.51-2.77-2.42,0-4,2.68-4,5.45A2.72,2.72,0,0,0,410.88,202.59Z"/><path class="cls-4" d="M427.23,203.8a13.78,13.78,0,0,1-3.33.46c-2.72,0-5.17-1.1-5.17-5.06,0-3.1,2.18-6.69,6.14-6.69,2.71,0,4.23,1.63,4.23,4.29a12,12,0,0,1-.2,2H421a4.17,4.17,0,0,0-.07.71c0,2.35,1.46,3,3.46,3a8.56,8.56,0,0,0,3.17-.68Zm-.27-6.49a5.51,5.51,0,0,0,.07-.86,2.15,2.15,0,0,0-2.38-2.26,3.86,3.86,0,0,0-3.43,3.12Z"/><path class="cls-4" d="M434.33,187.5h2.07L432.9,204h-2.07Z"/><path class="cls-4" d="M443.48,192.51c3,0,5,1.83,5,4.91,0,3.81-2.25,6.84-6.27,6.84-3.08,0-5.11-1.67-5.11-5C437.08,195.53,439.37,192.51,443.48,192.51Zm-1.32,10.08c2.34,0,4.1-2.64,4.1-5.17a2.94,2.94,0,0,0-2.86-3.23c-2.75,0-4.12,2.9-4.12,5.23C439.28,201.21,440.21,202.59,442.16,202.59Z"/><path class="cls-4" d="M451,192.78h2.07l.77,9h0l4.8-9h2.5l.77,9H462l4.66-9H469L462.82,204h-2.37l-.88-9h-.05l-4.84,9h-2.44Z"/><path class="cls-4" d="M477.12,193.09a11.53,11.53,0,0,1,3.13-.58c2.26,0,4.44.88,4.44,3.57a9.89,9.89,0,0,1-.2,1.76c-.42,2.09-.88,4.18-1.16,6.16h-1.92l.38-1.87h-.05a4.11,4.11,0,0,1-3.65,2.13c-1.89,0-3.59-1-3.59-3.1,0-3.19,2.89-4.09,6.65-4.09.44,0,1,0,1.49.06a3.11,3.11,0,0,0,.11-.72c0-1.61-1.05-2.22-2.57-2.22a7.05,7.05,0,0,0-3.43.94Zm3.5,5.52c-1.56,0-3.92.42-3.92,2.46,0,1,.86,1.52,1.85,1.52,2.09,0,3.41-2.09,3.65-4Z"/><path class="cls-4" d="M488.89,194.49c.09-.46.22-1.05.31-1.71h1.94l-.36,1.78h.05a4.31,4.31,0,0,1,3.83-2.05c2.17,0,3.74,1.15,3.74,3.53a10.76,10.76,0,0,1-.27,2L496.9,204h-2.07l1.39-6.71a8.12,8.12,0,0,0,.11-1.06,1.94,1.94,0,0,0-2.05-2c-2.55,0-3.8,2.77-4.09,4.15L489,204h-2.07Z"/><path class="cls-4" d="M510.87,200.28c-.26,1.26-.48,2.49-.64,3.72H508.3c.11-.53.19-1.14.37-1.72h0c-.77,1.5-2.14,2-3.83,2-2.71,0-4.16-2.15-4.16-4.7,0-3.52,2-7.05,5.81-7.05a3.75,3.75,0,0,1,3.61,2.12h0l1.47-7.13h2.07Zm-5.3,2.31c2.59,0,3.78-3.23,3.78-5.34a2.78,2.78,0,0,0-2.79-3.06c-2.44,0-3.72,3.1-3.72,5.21C502.84,201.18,503.68,202.59,505.57,202.59Z"/><path class="cls-4" d="M521.38,196.5c.22-1.26.44-2.49.6-3.72h1.94l-.38,1.71h0a4.46,4.46,0,0,1,4-2c2.53,0,4,1.85,4,4.27,0,4.12-1.91,7.48-5.65,7.48-2,0-3.13-.66-3.66-1.93h0l-1.34,6.29h-2.07Zm4.25,6.09c2.36,0,3.74-2.84,3.74-5.63,0-1.89-1.08-2.77-2.51-2.77-2.42,0-4,2.68-4,5.45A2.72,2.72,0,0,0,525.63,202.59Z"/><path class="cls-4" d="M543.5,202.28c-.09.47-.22,1.06-.31,1.72h-1.94l.35-1.78h0a4.32,4.32,0,0,1-3.83,2c-2.18,0-3.74-1.14-3.74-3.52a10.64,10.64,0,0,1,.26-2l1.24-5.92h2.07l-1.39,6.71a6.57,6.57,0,0,0-.11,1.06,1.94,1.94,0,0,0,2.05,2c2.55,0,3.8-2.77,4.09-4.16l1.19-5.65h2.06Z"/><path class="cls-4" d="M547.67,192.78h2.51l.55-2.6,2.23-.77-.71,3.37h3.08l-.33,1.67h-3.1l-1,4.82a16.85,16.85,0,0,0-.33,2.11c0,.79.44,1.21,1.5,1.21a4.15,4.15,0,0,0,1.45-.28l-.31,1.71a7.09,7.09,0,0,1-2,.24,2.41,2.41,0,0,1-2.68-2.48,16.26,16.26,0,0,1,.39-2.64l1-4.69h-2.46Z"/><path class="cls-4" d="M564,192.78h2.07L563.69,204h-2.07Zm2.75-2.51h-2.33l.48-2.33h2.33Z"/><path class="cls-4" d="M568.46,192.78H571l.55-2.6,2.23-.77-.71,3.37h3.08l-.33,1.67h-3.1l-1,4.82a16.85,16.85,0,0,0-.33,2.11c0,.79.44,1.21,1.5,1.21a4.15,4.15,0,0,0,1.45-.28L574,204a7.09,7.09,0,0,1-2,.24,2.41,2.41,0,0,1-2.68-2.48,16.26,16.26,0,0,1,.39-2.64l1-4.69h-2.46Z"/><path class="cls-4" d="M583.14,192.78h2.51l.55-2.6,2.22-.77-.71,3.37h3.08l-.33,1.67h-3.1l-1,4.82a16.85,16.85,0,0,0-.33,2.11c0,.79.44,1.21,1.5,1.21a4.24,4.24,0,0,0,1.45-.28l-.31,1.71a7.16,7.16,0,0,1-2,.24,2.41,2.41,0,0,1-2.68-2.48,15.21,15.21,0,0,1,.4-2.64l1-4.69h-2.46Z"/><path class="cls-4" d="M597.5,192.51c3,0,5,1.83,5,4.91,0,3.81-2.25,6.84-6.27,6.84-3.08,0-5.11-1.67-5.11-5C591.1,195.53,593.39,192.51,597.5,192.51Zm-1.32,10.08c2.34,0,4.1-2.64,4.1-5.17a2.94,2.94,0,0,0-2.86-3.23c-2.75,0-4.12,2.9-4.12,5.23C593.3,201.21,594.23,202.59,596.18,202.59Z"/><path class="cls-4" d="M616.38,192.78l-2.57,12c-.49,2.23-2.58,4.07-6,4.07a10,10,0,0,1-3.77-.81l.47-1.85a8.17,8.17,0,0,0,3.58,1,3.84,3.84,0,0,0,3.92-3.28l.29-1.21h0c-.68.82-1.54,1.28-3.34,1.28a4.26,4.26,0,0,1-4.18-4.49c0-4.13,2.42-7,5.65-7a3.76,3.76,0,0,1,3.68,2.25h0l.4-2Zm-7,9.55c1.8,0,3.85-1.41,3.85-5.08a2.79,2.79,0,0,0-2.8-3.06c-2.4,0-3.56,3.06-3.56,5.21C606.9,200.88,607.69,202.33,609.41,202.33Z"/><path class="cls-4" d="M626.48,203.8a13.77,13.77,0,0,1-3.32.46c-2.73,0-5.17-1.1-5.17-5.06,0-3.1,2.17-6.69,6.13-6.69,2.71,0,4.23,1.63,4.23,4.29a12,12,0,0,1-.2,2h-7.9a4.17,4.17,0,0,0-.06.71c0,2.35,1.45,3,3.45,3a8.52,8.52,0,0,0,3.17-.68Zm-.27-6.49a5.51,5.51,0,0,0,.07-.86,2.14,2.14,0,0,0-2.38-2.26,3.86,3.86,0,0,0-3.43,3.12Z"/><path class="cls-4" d="M630.81,192.78h2.51l.55-2.6,2.22-.77-.7,3.37h3.08l-.33,1.67H635l-1,4.82a16.85,16.85,0,0,0-.33,2.11c0,.79.44,1.21,1.5,1.21a4.2,4.2,0,0,0,1.45-.28l-.31,1.71a7.13,7.13,0,0,1-2,.24,2.42,2.42,0,0,1-2.69-2.48,16.24,16.24,0,0,1,.4-2.64l1-4.69H630.5Z"/><path class="cls-4" d="M642,187.5H644l-1.38,6.69h0a4.21,4.21,0,0,1,3.54-1.68c2.18,0,3.74,1.15,3.74,3.53a10.75,10.75,0,0,1-.26,2L648.48,204h-2.07l1.39-6.71a8.12,8.12,0,0,0,.11-1.06,1.94,1.94,0,0,0-2-2c-2.55,0-3.81,2.77-4.09,4.15L640.58,204h-2.07Z"/><path class="cls-4" d="M660.71,203.8a13.77,13.77,0,0,1-3.32.46c-2.73,0-5.17-1.1-5.17-5.06,0-3.1,2.18-6.69,6.14-6.69,2.7,0,4.22,1.63,4.22,4.29a12,12,0,0,1-.2,2h-7.9a4.17,4.17,0,0,0-.06.71c0,2.35,1.45,3,3.45,3a8.48,8.48,0,0,0,3.17-.68Zm-.26-6.49a6.92,6.92,0,0,0,.06-.86,2.14,2.14,0,0,0-2.37-2.26,3.86,3.86,0,0,0-3.44,3.12Z"/><path class="cls-4" d="M666.14,194.49c.09-.46.22-1.05.31-1.71h1.94l-.35,1.78h0a4.31,4.31,0,0,1,3.83-2.05,2.81,2.81,0,0,1,.94.2l-.46,1.83a2.65,2.65,0,0,0-.88-.22c-2.55,0-3.8,2.77-4.09,4.16L666.25,204h-2.06Z"/><path class="cls-4" d="M677.6,207a2.11,2.11,0,0,0,.91.2c1.25,0,2.11-.86,3-2.59l-1.81-11.84h2.16l1.3,8.95h0l4.89-8.95h2.22l-7.66,13.33c-1,1.72-1.74,2.77-3.8,2.77a7.72,7.72,0,0,1-1.57-.15Z"/><path class="cls-4" d="M696.53,192.51a4.59,4.59,0,0,1,5,4.91c0,3.81-2.25,6.84-6.27,6.84-3.08,0-5.11-1.67-5.11-5C690.12,195.53,692.41,192.51,696.53,192.51Zm-1.32,10.08c2.33,0,4.09-2.64,4.09-5.17a2.94,2.94,0,0,0-2.86-3.23c-2.75,0-4.12,2.9-4.12,5.23C692.32,201.21,693.25,202.59,695.21,202.59Z"/><path class="cls-4" d="M713.42,202.28c-.09.47-.22,1.06-.31,1.72h-1.93l.35-1.78h0a4.32,4.32,0,0,1-3.83,2c-2.18,0-3.74-1.14-3.74-3.52a10.64,10.64,0,0,1,.26-2l1.23-5.92h2.07l-1.39,6.71a8,8,0,0,0-.11,1.06,1.94,1.94,0,0,0,2,2c2.55,0,3.81-2.77,4.09-4.16l1.19-5.65h2.07Z"/><path class="cls-4" d="M718.7,194.49c.09-.46.22-1.05.31-1.71H721l-.36,1.78h0a4.31,4.31,0,0,1,3.83-2.05,2.86,2.86,0,0,1,.94.2l-.46,1.83a2.76,2.76,0,0,0-.88-.22c-2.55,0-3.81,2.77-4.09,4.16L718.81,204h-2.07Z"/><path class="cls-4" d="M732.47,194.76a5.44,5.44,0,0,0-2.24-.57c-.9,0-2.09.24-2.09,1.36,0,1.91,3.83,2,3.83,5.13,0,2.7-2.49,3.58-4.25,3.58a8.42,8.42,0,0,1-3.28-.52l.4-1.79a6.9,6.9,0,0,0,2.57.64c1.13,0,2.36-.46,2.36-1.74,0-1.91-3.83-2.2-3.83-5,0-2.37,2.37-3.3,4.22-3.3a8,8,0,0,1,2.93.62Z"/><path class="cls-4" d="M742.62,203.8a13.78,13.78,0,0,1-3.33.46c-2.73,0-5.17-1.1-5.17-5.06,0-3.1,2.18-6.69,6.14-6.69,2.71,0,4.23,1.63,4.23,4.29a12,12,0,0,1-.2,2h-7.9a3.35,3.35,0,0,0-.07.71c0,2.35,1.45,3,3.46,3a8.56,8.56,0,0,0,3.17-.68Zm-.27-6.49a5.51,5.51,0,0,0,.07-.86,2.15,2.15,0,0,0-2.38-2.26,3.86,3.86,0,0,0-3.43,3.12Z"/><path class="cls-4" d="M749.72,187.5h2.07l-3.5,16.5h-2.07Z"/><path class="cls-4" d="M755.44,194.45h-2.68l.3-1.67h2.73l.27-1.1c.41-1.87,1.23-4.45,4.46-4.45a5.6,5.6,0,0,1,1.59.25l-.42,1.65a3.21,3.21,0,0,0-1-.22c-1.83,0-2.31,1.49-2.6,2.83l-.22,1h3l-.33,1.67h-3L755.44,204h-2.07Z"/><path class="cls-4" d="M773.55,192.51a4.59,4.59,0,0,1,5,4.91c0,3.81-2.25,6.84-6.27,6.84-3.08,0-5.11-1.67-5.11-5C767.14,195.53,769.43,192.51,773.55,192.51Zm-1.32,10.08c2.33,0,4.09-2.64,4.09-5.17a2.94,2.94,0,0,0-2.86-3.23c-2.75,0-4.12,2.9-4.12,5.23C769.34,201.21,770.27,202.59,772.23,202.59Z"/><path class="cls-4" d="M782.28,194.49c.09-.46.22-1.05.31-1.71h1.93l-.35,1.78h.05a4.3,4.3,0,0,1,3.82-2.05,2.91,2.91,0,0,1,1,.2l-.46,1.83a2.76,2.76,0,0,0-.88-.22c-2.55,0-3.81,2.77-4.09,4.16L782.39,204h-2.07Z"/><path class="cls-4" d="M306.39,211.5h2.07l-1.39,6.69h.05a4.19,4.19,0,0,1,3.54-1.68c2.18,0,3.74,1.15,3.74,3.53a10.75,10.75,0,0,1-.26,2L312.9,228h-2.06l1.38-6.71a6.68,6.68,0,0,0,.11-1.06,1.94,1.94,0,0,0-2-2c-2.56,0-3.81,2.77-4.1,4.15L305,228h-2.06Z"/><path class="cls-4" d="M318.8,217.09a11.53,11.53,0,0,1,3.12-.58c2.27,0,4.45.88,4.45,3.57a9.89,9.89,0,0,1-.2,1.76c-.42,2.09-.88,4.18-1.17,6.16h-1.91l.37-1.87h0a4.12,4.12,0,0,1-3.65,2.13c-1.89,0-3.59-1-3.59-3.1,0-3.19,2.88-4.09,6.65-4.09.44,0,1,0,1.49.06a3.11,3.11,0,0,0,.11-.72c0-1.61-1.05-2.22-2.57-2.22a7.12,7.12,0,0,0-3.44.94Zm3.5,5.52c-1.56,0-3.92.42-3.92,2.46,0,1,.86,1.52,1.85,1.52,2.09,0,3.41-2.09,3.65-4Z"/><path class="cls-4" d="M329.36,216.78h2.2l1.14,9.06h.05l5-9.06h2.2L333.54,228h-2.42Z"/><path class="cls-4" d="M348.37,227.8a13.77,13.77,0,0,1-3.32.46c-2.73,0-5.17-1.1-5.17-5.06,0-3.1,2.17-6.69,6.13-6.69,2.71,0,4.23,1.63,4.23,4.29a12,12,0,0,1-.2,2h-7.9a4.17,4.17,0,0,0-.06.71c0,2.35,1.45,3,3.45,3a8.52,8.52,0,0,0,3.17-.68Zm-.27-6.49a5.51,5.51,0,0,0,.07-.86,2.14,2.14,0,0,0-2.38-2.26,3.86,3.86,0,0,0-3.43,3.12Z"/><path class="cls-4" d="M364.63,216.51a4.59,4.59,0,0,1,5,4.91c0,3.81-2.25,6.84-6.27,6.84-3.08,0-5.11-1.67-5.11-5C358.22,219.53,360.51,216.51,364.63,216.51Zm-1.32,10.08c2.33,0,4.09-2.64,4.09-5.17a2.94,2.94,0,0,0-2.86-3.23c-2.75,0-4.12,2.9-4.12,5.23C360.42,225.21,361.35,226.59,363.31,226.59Z"/><path class="cls-4" d="M381.52,226.28c-.09.47-.22,1.06-.31,1.72h-1.93l.35-1.78h0a4.32,4.32,0,0,1-3.83,2c-2.18,0-3.74-1.14-3.74-3.52a10.64,10.64,0,0,1,.26-2l1.23-5.92h2.07l-1.38,6.71a6.72,6.72,0,0,0-.12,1.06,1.94,1.94,0,0,0,2.05,2c2.55,0,3.81-2.77,4.09-4.16l1.19-5.65h2.07Z"/><path class="cls-4" d="M386.8,218.49c.09-.46.22-1.05.31-1.71H389l-.35,1.78h.05a4.31,4.31,0,0,1,3.83-2.05,2.86,2.86,0,0,1,.94.2l-.46,1.83a2.76,2.76,0,0,0-.88-.22c-2.55,0-3.81,2.77-4.09,4.16L386.91,228h-2.07Z"/><path class="cls-4" d="M401.94,217.09a11.53,11.53,0,0,1,3.12-.58c2.27,0,4.45.88,4.45,3.57a9.89,9.89,0,0,1-.2,1.76c-.42,2.09-.88,4.18-1.17,6.16h-1.91l.37-1.87h0a4.13,4.13,0,0,1-3.66,2.13c-1.89,0-3.58-1-3.58-3.1,0-3.19,2.88-4.09,6.64-4.09.44,0,1,0,1.5.06a3.76,3.76,0,0,0,.11-.72c0-1.61-1.06-2.22-2.57-2.22a7.09,7.09,0,0,0-3.44.94Zm3.49,5.52c-1.56,0-3.91.42-3.91,2.46,0,1,.86,1.52,1.85,1.52,2.09,0,3.41-2.09,3.65-4Z"/><path class="cls-4" d="M418.92,218.76a5.44,5.44,0,0,0-2.24-.57c-.9,0-2.09.24-2.09,1.36,0,1.91,3.83,2,3.83,5.13,0,2.7-2.49,3.58-4.25,3.58a8.42,8.42,0,0,1-3.28-.52l.4-1.79a6.9,6.9,0,0,0,2.57.64c1.12,0,2.35-.46,2.35-1.74,0-1.91-3.82-2.2-3.82-5,0-2.37,2.37-3.3,4.22-3.3a8.06,8.06,0,0,1,2.93.62Z"/><path class="cls-4" d="M427.48,218.76a5.49,5.49,0,0,0-2.25-.57c-.9,0-2.09.24-2.09,1.36,0,1.91,3.83,2,3.83,5.13,0,2.7-2.48,3.58-4.24,3.58a8.34,8.34,0,0,1-3.28-.52l.39-1.79a7,7,0,0,0,2.58.64c1.12,0,2.35-.46,2.35-1.74,0-1.91-3.83-2.2-3.83-5,0-2.37,2.38-3.3,4.23-3.3a8,8,0,0,1,2.92.62Z"/><path class="cls-4" d="M437.62,227.8a13.77,13.77,0,0,1-3.32.46c-2.73,0-5.17-1.1-5.17-5.06,0-3.1,2.18-6.69,6.14-6.69,2.7,0,4.22,1.63,4.22,4.29a12,12,0,0,1-.2,2h-7.9a4.17,4.17,0,0,0-.06.71c0,2.35,1.45,3,3.45,3a8.48,8.48,0,0,0,3.17-.68Zm-.26-6.49a6.92,6.92,0,0,0,.06-.86,2.14,2.14,0,0,0-2.37-2.26,3.86,3.86,0,0,0-3.44,3.12Z"/><path class="cls-4" d="M443.16,218.05c.09-.39.14-.79.22-1.27h1.94l-.26,1.54h0a4.15,4.15,0,0,1,3.57-1.81,2.89,2.89,0,0,1,3,2,4.91,4.91,0,0,1,4-2,2.91,2.91,0,0,1,3.12,2.93,11.53,11.53,0,0,1-.33,2.35l-1.3,6.21h-2.06l1.49-7.11a5.65,5.65,0,0,0,.13-1,1.55,1.55,0,0,0-1.65-1.65c-2.09,0-3.25,2.44-3.63,4.18L450.14,228h-2.07l1.5-7.11a5.65,5.65,0,0,0,.13-1,1.55,1.55,0,0,0-1.65-1.65c-2.09,0-3.26,2.44-3.63,4.18L443.16,228H441.1Z"/><path class="cls-4" d="M464.15,211.5h2.07L464.83,218h.05a4.3,4.3,0,0,1,3.56-1.48c2.53,0,4,1.85,4,4.27,0,4.12-1.92,7.48-5.66,7.48-2.4,0-3.19-.92-3.78-2.13H463l-.37,1.87h-1.94Zm2.36,15.09c2.35,0,3.74-2.84,3.74-5.63,0-1.89-1.08-2.77-2.51-2.77-2.42,0-4,2.68-4,5.45A2.73,2.73,0,0,0,466.51,226.59Z"/><path class="cls-4" d="M477.73,211.5h2.06L476.3,228h-2.07Z"/><path class="cls-4" d="M479,231a2.06,2.06,0,0,0,.9.2c1.25,0,2.11-.86,3-2.59L481,216.78h2.15l1.3,8.95h0l4.89-8.95h2.22L484,230.11c-1,1.72-1.73,2.77-3.8,2.77a7.56,7.56,0,0,1-1.56-.15Z"/><path class="cls-4" d="M498.19,216.78h2.5l.55-2.6,2.23-.77-.71,3.37h3.08l-.33,1.67h-3.1l-1,4.82a16.85,16.85,0,0,0-.33,2.11c0,.79.44,1.21,1.49,1.21a4.15,4.15,0,0,0,1.45-.28l-.3,1.71a7.2,7.2,0,0,1-2,.24,2.41,2.41,0,0,1-2.68-2.48,16.26,16.26,0,0,1,.39-2.64l1-4.69h-2.46Z"/><path class="cls-4" d="M514.64,227.8a13.77,13.77,0,0,1-3.32.46c-2.73,0-5.17-1.1-5.17-5.06,0-3.1,2.18-6.69,6.14-6.69,2.7,0,4.22,1.63,4.22,4.29a12,12,0,0,1-.2,2h-7.89a3.35,3.35,0,0,0-.07.71c0,2.35,1.45,3,3.45,3a8.48,8.48,0,0,0,3.17-.68Zm-.26-6.49a6.92,6.92,0,0,0,.06-.86,2.14,2.14,0,0,0-2.37-2.26,3.85,3.85,0,0,0-3.43,3.12Z"/><path class="cls-4" d="M520.54,217.09a11.53,11.53,0,0,1,3.12-.58c2.27,0,4.45.88,4.45,3.57a9.89,9.89,0,0,1-.2,1.76c-.42,2.09-.88,4.18-1.17,6.16h-1.91l.37-1.87h0a4.13,4.13,0,0,1-3.66,2.13c-1.89,0-3.58-1-3.58-3.1,0-3.19,2.88-4.09,6.64-4.09.44,0,1,0,1.5.06a3.76,3.76,0,0,0,.11-.72c0-1.61-1.06-2.22-2.57-2.22a7.12,7.12,0,0,0-3.44.94Zm3.5,5.52c-1.57,0-3.92.42-3.92,2.46,0,1,.86,1.52,1.85,1.52,2.09,0,3.41-2.09,3.65-4Z"/><path class="cls-4" d="M532.42,218.05c.09-.39.13-.79.22-1.27h1.93l-.26,1.54h0a4.16,4.16,0,0,1,3.57-1.81,2.89,2.89,0,0,1,3,2,4.92,4.92,0,0,1,4-2,2.91,2.91,0,0,1,3.13,2.93,12.27,12.27,0,0,1-.33,2.35l-1.3,6.21H544.3l1.5-7.11a6.67,6.67,0,0,0,.13-1,1.56,1.56,0,0,0-1.65-1.65c-2.09,0-3.26,2.44-3.63,4.18L539.39,228h-2.07l1.5-7.11a5.65,5.65,0,0,0,.13-1,1.55,1.55,0,0,0-1.65-1.65c-2.09,0-3.25,2.44-3.63,4.18L532.42,228h-2.07Z"/><path class="cls-4" d="M559.52,211.5h2.07L560.2,218h0a4.3,4.3,0,0,1,3.56-1.48c2.53,0,4,1.85,4,4.27,0,4.12-1.92,7.48-5.66,7.48-2.4,0-3.19-.92-3.78-2.13h0L558,228H556Zm2.36,15.09c2.35,0,3.74-2.84,3.74-5.63,0-1.89-1.08-2.77-2.51-2.77-2.42,0-4,2.68-4,5.45A2.73,2.73,0,0,0,561.88,226.59Z"/><path class="cls-4" d="M579.59,226.28c-.09.47-.22,1.06-.31,1.72h-1.94l.35-1.78h0a4.32,4.32,0,0,1-3.83,2c-2.18,0-3.74-1.14-3.74-3.52a10.64,10.64,0,0,1,.26-2l1.24-5.92h2.07l-1.39,6.71a6.57,6.57,0,0,0-.11,1.06,1.94,1.94,0,0,0,2.05,2c2.55,0,3.8-2.77,4.09-4.16l1.19-5.65h2.06Z"/><path class="cls-4" d="M585.42,216.78h2.06L585.11,228H583Zm2.75-2.51h-2.34l.49-2.33h2.33Z"/><path class="cls-4" d="M592.65,211.5h2.07l-3.5,16.5h-2.06Z"/><path class="cls-4" d="M605.63,224.28c-.26,1.26-.48,2.49-.63,3.72h-1.94c.11-.53.2-1.14.37-1.72h0c-.77,1.5-2.14,2-3.83,2-2.71,0-4.16-2.15-4.16-4.7,0-3.52,2-7.05,5.81-7.05a3.75,3.75,0,0,1,3.61,2.12h0l1.48-7.13h2.07Zm-5.3,2.31c2.6,0,3.79-3.23,3.79-5.34a2.79,2.79,0,0,0-2.8-3.06c-2.44,0-3.72,3.1-3.72,5.21C597.6,225.18,598.44,226.59,600.33,226.59Z"/><path class="cls-4" d="M617.21,216.78h2.06L616.9,228h-2.07Zm2.75-2.51h-2.34l.49-2.33h2.33Z"/><path class="cls-4" d="M621.67,216.78h2.51l.55-2.6,2.22-.77-.7,3.37h3.08l-.33,1.67h-3.11l-1,4.82a16.85,16.85,0,0,0-.33,2.11c0,.79.44,1.21,1.5,1.21a4.2,4.2,0,0,0,1.45-.28l-.31,1.71a7.13,7.13,0,0,1-2,.24,2.42,2.42,0,0,1-2.69-2.48,16.24,16.24,0,0,1,.4-2.64l1-4.69h-2.47Z"/><path class="cls-4" d="M638.72,218.45H636l.3-1.67h2.73l.27-1.1c.41-1.87,1.23-4.45,4.46-4.45a5.6,5.6,0,0,1,1.59.25l-.42,1.65a3.21,3.21,0,0,0-1-.22c-1.83,0-2.31,1.49-2.6,2.83l-.22,1h3l-.33,1.67h-3L638.72,228h-2.07Z"/><path class="cls-4" d="M650.71,216.51a4.58,4.58,0,0,1,5,4.91c0,3.81-2.24,6.84-6.27,6.84-3.08,0-5.1-1.67-5.1-5C644.31,219.53,646.6,216.51,650.71,216.51Zm-1.32,10.08c2.33,0,4.09-2.64,4.09-5.17a2.94,2.94,0,0,0-2.86-3.23c-2.75,0-4.11,2.9-4.11,5.23C646.51,225.21,647.43,226.59,649.39,226.59Z"/><path class="cls-4" d="M659.44,218.49c.09-.46.22-1.05.31-1.71h1.94l-.35,1.78h0a4.31,4.31,0,0,1,3.83-2.05,2.91,2.91,0,0,1,.95.2l-.47,1.83a2.65,2.65,0,0,0-.88-.22c-2.55,0-3.8,2.77-4.09,4.16L659.55,228h-2.06Z"/><path class="cls-4" d="M670.91,231a2,2,0,0,0,.9.2c1.25,0,2.11-.86,3-2.59L673,216.78h2.16l1.3,8.95h0l4.89-8.95h2.22l-7.66,13.33c-1,1.72-1.74,2.77-3.8,2.77a7.72,7.72,0,0,1-1.57-.15Z"/><path class="cls-4" d="M689.83,216.51a4.59,4.59,0,0,1,5,4.91c0,3.81-2.25,6.84-6.27,6.84-3.08,0-5.11-1.67-5.11-5C683.42,219.53,685.71,216.51,689.83,216.51Zm-1.32,10.08c2.33,0,4.09-2.64,4.09-5.17a2.94,2.94,0,0,0-2.86-3.23c-2.75,0-4.12,2.9-4.12,5.23C685.62,225.21,686.55,226.59,688.51,226.59Z"/><path class="cls-4" d="M706.72,226.28c-.09.47-.22,1.06-.3,1.72h-1.94l.35-1.78h0a4.32,4.32,0,0,1-3.83,2c-2.18,0-3.74-1.14-3.74-3.52a10.64,10.64,0,0,1,.26-2l1.23-5.92h2.07l-1.38,6.71a6.57,6.57,0,0,0-.11,1.06,1.94,1.94,0,0,0,2,2c2.55,0,3.81-2.77,4.09-4.16l1.19-5.65h2.07Z"/><path class="cls-4" d="M711.74,225.54h2.46l-.5,2.46h-2.47Zm2.75-12.9h2.59l-2.72,11.05h-2Z"/><path class="cls-3" d="M504.71,25.28h-5.33l7.09,19.47a3,3,0,0,1-3.13,3.31,7.23,7.23,0,0,1-2.48-.32l-.33,3.56a12.48,12.48,0,0,0,3.42.51c5,0,6.16-4,7.7-8.14l7-18.39h-4.89l-4.47,13.53h-.07ZM487.57,43.81h4.83V37c0-2.66,0-7.56,3.92-7.56a4.94,4.94,0,0,1,2.16.4V25a5.1,5.1,0,0,0-1.48-.15c-2.88,0-4.86,2.92-5.07,4.65h-.08V25.28h-4.28ZM469.32,34.1c0-2.78,1.51-5.51,4.64-5.51s4.68,2.66,4.68,5.51c0,3.09-1,6.4-4.68,6.4S469.32,37.16,469.32,34.1Zm-5,.57c0,5.33,3.56,9.58,9.68,9.58s9.72-4.25,9.72-9.58c0-6.12-4.21-9.83-9.72-9.83S464.28,28.55,464.28,34.67Zm-30.89,9.14h4.83v-9c0-2.42.39-6.23,3.59-6.23,2.78,0,2.78,2.45,2.78,4.17V43.81h4.82v-9c0-2.42.4-6.23,3.6-6.23,2.77,0,2.77,2.45,2.77,4.17V43.81h4.82V32.12c0-4.14-1.29-7.28-5.86-7.28a6.37,6.37,0,0,0-5.8,3.28c-1-2.3-2.88-3.28-5.47-3.28a6.55,6.55,0,0,0-5.51,3h-.07V25.28h-4.5Zm-5.08-5a12.57,12.57,0,0,1-6.15,1.87c-3,0-5.08-1.69-5.29-4.68h12.81c0-6.48-1.94-11.2-8.82-11.2-5.76,0-8.6,4.43-8.6,9.8,0,6.08,3.56,9.61,9.68,9.61a12.72,12.72,0,0,0,6.37-1.48Zm-11.44-6.12c.21-2.49,1.58-4.36,4.28-4.36s3.78,2,3.93,4.36Zm-35.5,11.08h4.83v-9c0-2.42.39-6.23,3.6-6.23,2.77,0,2.77,2.45,2.77,4.17V43.81h4.82v-9c0-2.42.4-6.23,3.6-6.23,2.77,0,2.77,2.45,2.77,4.17V43.81h4.83V32.12c0-4.14-1.3-7.28-5.87-7.28a6.37,6.37,0,0,0-5.8,3.28c-1-2.3-2.88-3.28-5.47-3.28a6.55,6.55,0,0,0-5.51,3h-.07V25.28h-4.5Z"/><path class="cls-3" d="M641,26a13,13,0,0,0-4.79-1c-3,0-6.91,1.52-6.91,5.4,0,4.65,6.26,5.12,6.26,8.25,0,2.08-2,2.84-3.85,2.84a11.29,11.29,0,0,1-4.21-1l-.65,2.91a13.42,13.42,0,0,0,5.36.87c2.88,0,7-1.44,7-5.87,0-5.11-6.26-5.26-6.26-8.39,0-1.83,1.94-2.23,3.42-2.23a9,9,0,0,1,3.67.94Zm-14,0a13,13,0,0,0-4.78-1c-3,0-6.92,1.52-6.92,5.4,0,4.65,6.27,5.12,6.27,8.25,0,2.08-2,2.84-3.85,2.84a11.29,11.29,0,0,1-4.21-1l-.65,2.91a13.35,13.35,0,0,0,5.36.87c2.88,0,7-1.44,7-5.87,0-5.11-6.27-5.26-6.27-8.39,0-1.83,2-2.23,3.42-2.23a9.08,9.08,0,0,1,3.68.94ZM609.14,40.39A13.84,13.84,0,0,1,604,41.51c-3.28,0-5.65-1.12-5.65-5a5.67,5.67,0,0,1,.11-1.15h12.92a19.53,19.53,0,0,0,.32-3.35c0-4.35-2.48-7-6.91-7-6.48,0-10,5.87-10,11,0,6.48,4,8.28,8.46,8.28a23.09,23.09,0,0,0,5.43-.76Zm-10.36-7.52c.72-2.7,2.84-5.11,5.61-5.11,2.56,0,3.89,1.55,3.89,3.71a10.72,10.72,0,0,1-.11,1.4ZM580.27,43.81h3.39l1.9-9c.47-2.27,2.52-6.8,6.7-6.8a4.52,4.52,0,0,1,1.44.36l.75-3a4.56,4.56,0,0,0-1.54-.33,7.06,7.06,0,0,0-6.27,3.35h-.07l.58-2.91H584c-.15,1.08-.36,2.05-.5,2.8ZM563,36.69c0-4.54,2.62-8.93,6.58-8.93,2.34,0,4.11,1.44,4.11,4.54,0,4.57-2.27,9.21-6.12,9.21C564.5,41.51,563,39.17,563,36.69Zm-6.59,14.68h3.38L562,41.08h.07c.87,2.09,2.77,3.17,6,3.17,6.12,0,9.25-5.51,9.25-12.24,0-4-2.41-7-6.55-7-2.56,0-5.19.94-6.52,3.24h-.07l.61-2.8h-3.17c-.25,2-.61,4-1,6.08ZM537.5,43.81h4.21l6.12-7.19L551,43.81h3.82l-4.47-9.53,7.82-8.82h-4.11l-5.51,6.62-2.73-6.62h-3.71L546,34.13Zm-2.37-3.42a13.93,13.93,0,0,1-5.19,1.12c-3.27,0-5.65-1.12-5.65-5a6.48,6.48,0,0,1,.11-1.15h12.92a19.51,19.51,0,0,0,.33-3.35c0-4.35-2.49-7-6.92-7-6.48,0-10,5.87-10,11,0,6.48,4,8.28,8.46,8.28a23.17,23.17,0,0,0,5.44-.76Zm-10.37-7.52c.72-2.7,2.84-5.11,5.62-5.11a3.51,3.51,0,0,1,3.88,3.71,9.22,9.22,0,0,1-.11,1.4Z"/></g></svg>